<svg width="120" height="120" viewBox="0 0 1024 1024">
  <path fill="#002FA7" d="M512 64C264.6 64 64 264.6 64 512s200.6 448 448 448 448-200.6 448-448S759.4 64 512 64zm0 820c-205.4 0-372-166.6-372-372s166.6-372 372-372 372 166.6 372 372-166.6 372-372 372z"/>
  <path fill="#002FA7" d="M512 140c-205.4 0-372 166.6-372 372s166.6 372 372 372 372-166.6 372-372-166.6-372-372-372zm-60 372c0-33.1 26.9-60 60-60s60 26.9 60 60-26.9 60-60 60-60-26.9-60-60zm120 0c0-33.1 26.9-60 60-60s60 26.9 60 60-26.9 60-60 60-60-26.9-60-60z"/>
</svg>
