<svg width="120" height="120" viewBox="0 0 1024 1024">
  <path fill="#CF0A2C" d="M512 64C264.6 64 64 264.6 64 512s200.6 448 448 448 448-200.6 448-448S759.4 64 512 64zm0 820c-205.4 0-372-166.6-372-372s166.6-372 372-372 372 166.6 372 372-166.6 372-372 372z"/>
  <path fill="#CF0A2C" d="M512 140c-205.4 0-372 166.6-372 372s166.6 372 372 372 372-166.6 372-372-166.6-372-372-372zm161.7 466.8l-114.9 114.9c-12.5 12.5-32.8 12.5-45.3 0l-114.9-114.9c-12.5-12.5-12.5-32.8 0-45.3l114.9-114.9c12.5-12.5 32.8-12.5 45.3 0l114.9 114.9c12.5 12.5 12.5 32.8 0 45.3z"/>
</svg>
